<svg fill="none" height="24" viewBox="0 0 24 24" width="24" xmlns="http://www.w3.org/2000/svg" xmlns:xlink="http://www.w3.org/1999/xlink"><clipPath id="a"><rect height="24" rx="12" width="24"/></clipPath><mask id="b" height="24" maskUnits="userSpaceOnUse" width="34" x="-5" y="0"><rect fill="#fff" height="24" rx="1.71429" width="33.6" x="-4.79999"/></mask><g clip-path="url(#a)"><rect fill="#fff" height="24" rx="12" width="24"/><rect fill="#fff" height="24" rx="1.71429" width="33.6" x="-4.79999"/><g mask="url(#b)"><path d="m-4.79999 0h33.6v24h-33.6z" fill="#0a17a7"/><path clip-rule="evenodd" d="m3.20837 16-11.33679 7.6468 1.78942 2.6529 14.339-9.6718v8.9721h8v-8.972l14.339 9.6718 1.7894-2.6529-11.3368-7.6469h8.0084v-7.99995h-8.0086l11.3369-7.646873-1.7894-2.652917-14.3389 9.67172v-8.97193h-8v8.97199l-14.33891-9.67172-1.78942 2.652922 11.33686 7.646808h-8.00853v7.99995z" fill="#fff" fill-rule="evenodd"/><g stroke="#db1f35" stroke-linecap="round" stroke-width=".571429"><path d="m17.6015 7.59843 15.1984-9.99864"/><path d="m19.2155 16.437 13.6246 9.1834"/><path d="m4.80641 7.57249-14.21162-9.57774"/><path d="m6.34782 16.3258-15.75303 10.4467"/></g><path clip-rule="evenodd" d="m-4.79999 14.4h14.4v9.6h4.79999v-9.6h14.4v-4.8h-14.4v-9.6h-4.79999v9.6h-14.4z" fill="#e6273e" fill-rule="evenodd"/></g></g></svg>